<?xml version="1.0" encoding="UTF-8"?><svg id="Logo" xmlns="http://www.w3.org/2000/svg" viewBox="0 0 1147.53 705.83"><defs><style>.cls-1{fill:#fff;}</style></defs><path class="cls-1" d="m79.37,79.37v280.63h342.31c-2.68-1.91-5.18-3.91-7.4-6.04-19.85-19.17-20.12-41.44-20.69-62.32v-118.44h63.51v124.37c0,8.45.29,17.2,7.37,23.97,5.11,5.36,12.76,7.33,20.14,7.33,9.91,0,16.44-3.68,20.12-7.05,7.38-7.05,7.65-15.8,7.65-24.25v-124.37h63.8v106.04c0,22.84,0,52.46-23.52,74.73-2.25,2.11-4.74,4.11-7.42,6.04h95.12c-28-20.08-41.16-53.61-41.16-86.14,0-53.58,36.03-108.01,103.79-108.01,30.35,0,59.27,10.73,80.26,32.16,8.5,8.74,12.47,15.51,16.72,23.4l-53.02,26.24c-5.11-11.85-14.74-32.99-41.41-32.99-13.88,0-22.68,6.49-26.93,10.72-15.02,14.38-15.02,36.94-15.02,44.85,0,29.6,11.05,57.52,42.25,57.52,29.5,0,38.28-25.94,40.56-32.7l53.87,25.94c-5.1,9.58-9.92,18.6-19.56,28.19-4.13,4.04-8.61,7.64-13.34,10.84h58.25v-187.1h63.22v147.05h82.07v40.05h58.09V79.37H79.37Z"/><path d="m312.57,201.71c.16.02.47.17.47.5,0,.58.36.64.5.64v2.16c0,.5-.39.7-.61.75-.04.01-.11.07-.11.12v1.37l15.14-3.34h.01l15.13,3.34v-1.37c0-.06-.06-.11-.1-.12-.22-.04-.61-.25-.61-.75v-2.16c.15,0,.5-.06.5-.64,0-.34.31-.48.47-.5.04,0,.09-.02.09-.09v-.59c0-.15-.15-.15-.15-.15h-.53c-.13,0-.13-.11-.13-.11v-.56c0-.13-.13-.13-.13-.13h-.5c-.15,0-.15-.13-.15-.13v-.51s.01-.11-.12-.11h-.3c-.11,0-.21-.09-.22-.23-.02-.7.22-5.65-2.39-9.23-2.06-3.08-4.89-4.64-6.46-5.37-.02-.66-.98-.92-1.4-1.06-.21-.07-.4-.16-.4-.36,0,0-.01-.21-.01-.22,0-.21.19-.29.48-.28.09,0,.16-.08.16-.13v-.6c0-.08-.08-.18-.2-.18h-.57c-.13,0-.2-.12-.2-.2v-.3c0-.18-.13-.28-.25-.32v-3.7c0-.12.1-.11.18-.11h.06c.06,0,.09-.04.09-.09v-.35c0-.06-.03-.1-.09-.1h-.17c-.06-.02-.09-.1-.09-.26,0-.18.04-.26.11-.27h.15c.06,0,.09-.04.09-.09v-.36s-.03-.09-.09-.09h-.19c-.08-.01-.15-.04-.22-.11-.63-.49-1.26-1.22-1.26-1.32v-.13c0-.08-.08-.22-.25-.22s-.15-.18-.06-.18c.06,0,.08-.01.08-.1v-.23c0-.11-.34-.55-.34-.55h-.01s-.34.44-.34.55c0,.1.01.19.01.23,0,.09.01.1.08.1.08,0,.1.18-.06.18-.18,0-.25.15-.25.22,0,.07-.01.08-.01.13,0,.1-.63.83-1.26,1.32-.08.07-.13.1-.22.11h-.19s-.08.04-.08.09v.36s.03.09.08.09h.15c.07.01.12.09.12.27,0,.16-.04.23-.1.26h-.17s-.08.04-.08.1v.35s.03.09.08.09h.06c.08,0,.18-.01.18.11v3.7c-.1.04-.25.15-.25.32v.3c0,.08-.07.2-.2.2h-.57c-.12,0-.2.1-.2.18v.6c0,.06.07.13.16.13.28-.01.48.07.48.28,0,.01-.01.22-.01.22,0,.2-.19.29-.4.36-.42.15-1.37.4-1.4,1.06-1.58.74-4.4,2.29-6.45,5.37-2.63,3.58-2.38,8.53-2.4,9.23,0,.15-.11.23-.22.23h-.3c-.12,0-.12.11-.12.11v.51s0,.13-.15.13h-.51s-.12,0-.12.13v.56s0,.11-.15.11h-.51s-.13,0-.13.15v.59c0,.07.03.09.08.09Z"/><path d="m360.03,249.25v-4.44h-2.59v-1.86h0v-.54s-.03-.08-.08-.08h-.22s-.06-.01-.08-.02c-.01-.01-.02-.04-.02-.07v-.31s0-.04-.02-.07c-.03-.02-.19-.19-.27-.27v-18.51c0-.07.04-.06.04-.06h.07c.07,0,.08-.06.08-.12v-.36c0-.11.02-.34.06-.4.04-.07.03-.15-.09-.15h-.15c-.15,0-.17-.16-.1-.21.46-.38.5-1.03.5-1.16,0-.11,0-.21.12-.21h.21s.07-.03.07-.08v-.79h1.46c.16,0,.18-.13.18-.13l.49-2.72c.29-.54.84-.46.84-.46h-.01s.09,0,.09,0l.45-1.69s.07-.16-.11-.19c-.12-.02-33.02-7.1-33.02-7.1,0,0-32.93,7.08-32.99,7.1-.18.03-.11.19-.11.19l.46,1.69h.09s-.01,0-.01,0c0,0,.51-.07.8.4l.49,2.72s.01.19.21.19h1.44v.79s.04.08.08.08h.21c.1,0,.11.1.11.2,0,.12.06.78.51,1.17.06.06.03.21-.1.21h-.16c-.11,0-.12.08-.09.15.04.07.06.29.06.4v.36c0,.07.01.12.08.12h.08s.04-.01.04.06v18.51l-.27.27s-.02.04-.02.07v.31s-.01.06-.02.07c-.02.01-.04.02-.08.02h-.22s-.08.04-.08.08v.46h0v1.93h-2.59v4.44h-2.59v4.45h69.39s0-4.45,0-4.45h-2.61Zm-50.09-27.24h-.16c-.11,0-.12.08-.09.15.04.07.06.29.06.4v.36c0,.07,0,.12.08.12h.07s.06-.01.06.06v18.51c-.06.06-.26.26-.27.27-.01.02-.03.04-.03.07v.31s0,.06-.02.07c-.01.01-.04.02-.07.02h-.23s-.07.04-.07.08v.46h-5.91v-.46s-.03-.08-.07-.08h-.23s-.06-.01-.08-.02c-.01-.01-.01-.04-.01-.07v-.31s-.01-.04-.03-.07c-.02-.02-.19-.19-.27-.27v-18.51c0-.07.06-.06.06-.06h.07c.07,0,.07-.06.07-.12v-.36c0-.11.02-.34.07-.4.03-.07.02-.15-.09-.15h-.16c-.15,0-.16-.16-.09-.21.46-.38.5-1.03.5-1.16,0-.11,0-.21.11-.21h.21s.08-.03.08-.08v-.79h5.65v.79s.03.08.08.08h.21c.1,0,.1.1.1.2,0,.12.07.78.51,1.17.07.06.04.21-.09.21Zm10.82,0h-.16c-.11,0-.12.08-.09.15.04.07.06.29.06.4v.36c0,.07.01.12.08.12h.07s.06-.01.06.06v18.51c-.06.06-.26.26-.27.27-.01.02-.02.04-.02.07v.31s-.01.06-.03.07c-.01.01-.03.02-.07.02h-.22s-.08.04-.08.08v.46h-5.91v-.46s-.03-.08-.07-.08h-.25s-.04-.01-.07-.02c-.01-.01-.01-.04-.01-.07v-.31s-.01-.04-.03-.07c-.02-.02-.19-.19-.27-.27v-18.51c0-.07.04-.06.04-.06h.07c.07,0,.08-.06.08-.12v-.36c0-.11.02-.34.06-.4.04-.07.03-.15-.08-.15h-.16c-.15,0-.16-.16-.1-.21.47-.38.51-1.03.51-1.16,0-.11-.01-.21.11-.21h.21s.07-.03.07-.08v-.79h5.66v.79s.03.08.07.08h.21c.1,0,.11.1.11.2,0,.12.06.78.51,1.17.06.06.03.21-.1.21Zm10.82,0h-.16c-.11,0-.12.08-.09.15.04.07.04.29.04.4v.36c0,.07.02.12.08.12h.08s.06-.01.06.06v18.51l-.27.27s-.03.04-.03.07v.31s0,.06-.02.07c-.01.01-.04.02-.07.02h-.23s-.07.04-.07.08v.46h-5.91v-.46s-.03-.08-.07-.08h-.23s-.06-.01-.07-.02c-.02-.01-.02-.04-.02-.07v-.31s-.01-.04-.03-.07-.19-.19-.27-.27v-18.51c0-.07.06-.06.06-.06h.07c.07,0,.07-.06.07-.12v-.36c0-.11.02-.34.06-.4.04-.07.03-.15-.08-.15h-.16c-.15,0-.16-.16-.1-.21.47-.38.51-1.03.51-1.16,0-.11-.01-.21.11-.21h.21s.08-.03.08-.08v-.79h5.65v.79s.03.08.08.08h.21c.1,0,.1.1.1.2,0,.12.07.78.51,1.17.07.06.04.21-.09.21Zm10.82,0h-.16c-.11,0-.12.08-.09.15.04.07.06.29.06.4v.36c0,.07,0,.12.07.12h.08s.04-.01.04.06c0,.04.01.07.01.07v18.45l-.27.27s-.03.04-.03.07v.31s0,.06-.02.07c-.01.01-.04.02-.07.02h-.23s-.07.04-.07.08v.46h-5.92v-.46s-.03-.08-.07-.08h-.23s-.06-.01-.08-.02c-.01-.01-.01-.04-.01-.07v-.31s-.01-.04-.03-.07-.19-.19-.27-.27v-18.51c0-.07.04-.06.04-.06h.07c.08,0,.08-.06.08-.12v-.36c0-.11.02-.34.07-.4.03-.07.02-.15-.09-.15h-.16c-.15,0-.16-.16-.1-.21.47-.38.5-1.03.5-1.16,0-.11,0-.21.12-.21h.21s.08-.03.08-.08v-.79h5.65v.79s.03.08.08.08h.21c.1,0,.1.1.1.2,0,.12.07.78.51,1.17.07.06.04.21-.09.21Zm10.82,0h-.16c-.11,0-.12.08-.09.15.04.07.06.29.06.4v.36c0,.07,0,.12.07.12h.08s.06-.01.06.06v18.51c-.06.06-.26.26-.27.27-.01.02-.03.04-.03.07v.31s0,.06-.02.07c-.01.01-.04.02-.07.02h-.23s-.07.04-.07.08v.46h-5.91v-.46s-.03-.08-.08-.08h-.22s-.06-.01-.08-.02c-.01-.01-.02-.04-.02-.07v-.31s0-.04-.02-.07c-.03-.02-.19-.19-.27-.27v-18.51c0-.07.04-.06.04-.06h.08c.06,0,.07-.06.07-.12v-.36c0-.11.01-.34.06-.4.03-.07.03-.15-.09-.15h-.15c-.15,0-.17-.16-.1-.21.47-.38.5-1.03.5-1.16,0-.11,0-.21.12-.21h.21s.07-.03.07-.08v-.79h5.65v.79s.03.08.08.08h.21c.1,0,.1.1.1.2,0,.12.06.78.51,1.17.07.06.04.21-.09.21Z"/><path class="cls-1" d="m149.14,512.74h-16.82l-6.69-17.4h-30.62l-6.32,17.4h-16.41l29.83-76.59h16.35l30.67,76.59Zm-28.47-30.3l-10.55-28.42-10.34,28.42h20.9Z"/><path class="cls-1" d="m205.98,512.74h-13.64v-8.15c-2.26,3.17-4.94,5.53-8.02,7.08-3.08,1.55-6.19,2.33-9.33,2.33-6.37,0-11.83-2.57-16.38-7.71-4.55-5.14-6.82-12.3-6.82-21.5s2.21-16.55,6.63-21.45c4.42-4.89,10.01-7.34,16.77-7.34,6.2,0,11.56,2.58,16.09,7.73v-27.59h14.68v76.59Zm-39.18-28.94c0,5.92.82,10.21,2.46,12.85,2.37,3.83,5.68,5.75,9.93,5.75,3.38,0,6.25-1.44,8.62-4.31,2.37-2.87,3.55-7.17,3.55-12.88,0-6.38-1.15-10.96-3.45-13.77-2.3-2.8-5.24-4.21-8.83-4.21s-6.4,1.38-8.75,4.15c-2.35,2.77-3.53,6.91-3.53,12.41Z"/><path class="cls-1" d="m235.71,512.74l-22.36-55.49h15.41l10.45,28.32,3.03,9.46c.8-2.4,1.31-3.99,1.51-4.75.49-1.57,1.01-3.13,1.57-4.7l10.55-28.32h15.1l-22.05,55.49h-13.22Z"/><path class="cls-1" d="m288.79,474.18l-13.32-2.4c1.5-5.36,4.08-9.33,7.73-11.91,3.66-2.58,9.09-3.87,16.3-3.87,6.55,0,11.42.78,14.63,2.33,3.2,1.55,5.46,3.52,6.77,5.9,1.31,2.39,1.96,6.77,1.96,13.14l-.16,17.14c0,4.88.24,8.47.71,10.79.47,2.32,1.35,4.8,2.64,7.45h-14.52c-.38-.97-.85-2.42-1.41-4.34-.24-.87-.42-1.45-.52-1.72-2.51,2.44-5.19,4.27-8.05,5.49-2.86,1.22-5.9,1.83-9.14,1.83-5.71,0-10.21-1.55-13.51-4.65-3.29-3.1-4.94-7.02-4.94-11.75,0-3.13.75-5.93,2.25-8.39,1.5-2.46,3.6-4.34,6.3-5.64,2.7-1.31,6.59-2.45,11.68-3.42,6.86-1.29,11.62-2.49,14.26-3.61v-1.46c0-2.82-.7-4.83-2.09-6.03-1.39-1.2-4.02-1.8-7.89-1.8-2.61,0-4.65.51-6.11,1.54s-2.65,2.83-3.55,5.41Zm19.64,11.91c-1.88.63-4.86,1.38-8.93,2.25-4.08.87-6.74,1.72-7.99,2.56-1.92,1.36-2.87,3.08-2.87,5.17s.77,3.83,2.3,5.33c1.53,1.5,3.48,2.25,5.85,2.25,2.65,0,5.17-.87,7.58-2.61,1.78-1.32,2.94-2.94,3.5-4.86.38-1.25.57-3.64.57-7.16v-2.93Z"/><path class="cls-1" d="m386.73,512.74h-14.68v-28.32c0-5.99-.31-9.87-.94-11.62-.63-1.76-1.65-3.13-3.06-4.1-1.41-.98-3.11-1.46-5.09-1.46-2.54,0-4.83.7-6.84,2.09-2.02,1.39-3.4,3.24-4.15,5.54s-1.12,6.55-1.12,12.75v25.13h-14.68v-55.49h13.64v8.15c4.84-6.27,10.94-9.4,18.29-9.4,3.24,0,6.2.58,8.88,1.75,2.68,1.17,4.71,2.66,6.09,4.47,1.38,1.81,2.33,3.87,2.87,6.16.54,2.3.81,5.59.81,9.88v34.48Z"/><path class="cls-1" d="m447.86,473.66l-14.47,2.61c-.49-2.89-1.59-5.07-3.32-6.53-1.72-1.46-3.96-2.2-6.71-2.2-3.66,0-6.58,1.26-8.75,3.79-2.18,2.53-3.27,6.75-3.27,12.67,0,6.58,1.11,11.23,3.32,13.95s5.18,4.07,8.91,4.07c2.79,0,5.07-.79,6.84-2.38,1.78-1.58,3.03-4.31,3.76-8.18l14.42,2.46c-1.5,6.62-4.37,11.62-8.62,14.99-4.25,3.38-9.95,5.07-17.08,5.07-8.12,0-14.58-2.56-19.41-7.68-4.82-5.12-7.24-12.21-7.24-21.26s2.42-16.29,7.26-21.39c4.84-5.1,11.39-7.65,19.64-7.65,6.76,0,12.13,1.46,16.12,4.36,3.99,2.91,6.85,7.34,8.59,13.3Z"/><path class="cls-1" d="m491.12,495.08l14.63,2.46c-1.88,5.36-4.85,9.45-8.91,12.25-4.06,2.8-9.13,4.21-15.23,4.21-9.65,0-16.79-3.15-21.42-9.46-3.66-5.05-5.49-11.42-5.49-19.12,0-9.2,2.4-16.4,7.21-21.6,4.81-5.21,10.88-7.81,18.23-7.81,8.25,0,14.77,2.73,19.54,8.18,4.77,5.45,7.05,13.8,6.84,25.05h-36.78c.1,4.35,1.29,7.74,3.55,10.16,2.26,2.42,5.08,3.63,8.46,3.63,2.3,0,4.23-.63,5.8-1.88s2.75-3.27,3.55-6.06Zm.84-14.84c-.1-4.25-1.2-7.48-3.29-9.69s-4.63-3.32-7.63-3.32c-3.21,0-5.85,1.17-7.94,3.5-2.09,2.33-3.12,5.5-3.08,9.51h21.94Z"/><path class="cls-1" d="m568.31,512.74h-13.64v-8.15c-2.26,3.17-4.94,5.53-8.02,7.08-3.08,1.55-6.19,2.33-9.33,2.33-6.37,0-11.83-2.57-16.38-7.71-4.55-5.14-6.82-12.3-6.82-21.5s2.21-16.55,6.63-21.45c4.42-4.89,10.01-7.34,16.77-7.34,6.2,0,11.56,2.58,16.09,7.73v-27.59h14.68v76.59Zm-39.18-28.94c0,5.92.82,10.21,2.46,12.85,2.37,3.83,5.68,5.75,9.93,5.75,3.38,0,6.25-1.44,8.62-4.31,2.37-2.87,3.55-7.17,3.55-12.88,0-6.38-1.15-10.96-3.45-13.77-2.3-2.8-5.24-4.21-8.83-4.21s-6.4,1.38-8.75,4.15c-2.35,2.77-3.53,6.91-3.53,12.41Z"/><path class="cls-1" d="m610.53,512.74v-76.59h32.55c8.18,0,14.13.69,17.84,2.06,3.71,1.38,6.68,3.82,8.91,7.34,2.23,3.52,3.34,7.54,3.34,12.07,0,5.75-1.69,10.49-5.07,14.24-3.38,3.75-8.43,6.1-15.15,7.08,3.34,1.95,6.1,4.09,8.28,6.43,2.18,2.33,5.11,6.48,8.8,12.43l9.35,14.94h-18.5l-11.18-16.67c-3.97-5.96-6.69-9.71-8.15-11.26-1.46-1.55-3.01-2.61-4.65-3.19-1.64-.58-4.23-.86-7.78-.86h-3.13v31.97h-15.46Zm15.46-44.2h11.44c7.42,0,12.05-.31,13.9-.94,1.85-.63,3.29-1.71,4.34-3.24,1.04-1.53,1.57-3.45,1.57-5.75,0-2.58-.69-4.66-2.06-6.24s-3.32-2.59-5.83-3c-1.25-.17-5.02-.26-11.29-.26h-12.07v19.44Z"/><path class="cls-1" d="m717.63,495.08l14.63,2.46c-1.88,5.36-4.85,9.45-8.91,12.25-4.06,2.8-9.13,4.21-15.23,4.21-9.65,0-16.79-3.15-21.42-9.46-3.66-5.05-5.49-11.42-5.49-19.12,0-9.2,2.4-16.4,7.21-21.6,4.81-5.21,10.88-7.81,18.23-7.81,8.25,0,14.77,2.73,19.54,8.18,4.77,5.45,7.05,13.8,6.84,25.05h-36.78c.1,4.35,1.29,7.74,3.55,10.16,2.26,2.42,5.08,3.63,8.46,3.63,2.3,0,4.23-.63,5.8-1.88s2.75-3.27,3.55-6.06Zm.84-14.84c-.1-4.25-1.2-7.48-3.29-9.69s-4.63-3.32-7.63-3.32c-3.21,0-5.85,1.17-7.94,3.5-2.09,2.33-3.12,5.5-3.08,9.51h21.94Z"/><path class="cls-1" d="m738.77,496.91l14.73-2.25c.63,2.86,1.9,5.02,3.81,6.5,1.92,1.48,4.6,2.22,8.05,2.22,3.8,0,6.65-.7,8.57-2.09,1.29-.98,1.93-2.28,1.93-3.92,0-1.11-.35-2.04-1.04-2.77-.73-.7-2.37-1.34-4.91-1.93-11.84-2.61-19.35-5-22.52-7.16-4.39-3-6.58-7.16-6.58-12.49,0-4.81,1.9-8.85,5.7-12.12,3.8-3.27,9.68-4.91,17.66-4.91s13.24,1.24,16.93,3.71c3.69,2.47,6.23,6.13,7.63,10.97l-13.84,2.56c-.59-2.16-1.72-3.81-3.37-4.96-1.65-1.15-4.01-1.72-7.08-1.72-3.87,0-6.63.54-8.31,1.62-1.12.77-1.67,1.76-1.67,2.98,0,1.04.49,1.93,1.46,2.66,1.32.98,5.89,2.35,13.71,4.13s13.28,3.95,16.38,6.53c3.07,2.61,4.6,6.25,4.6,10.92,0,5.09-2.12,9.46-6.37,13.11-4.25,3.66-10.54,5.49-18.86,5.49-7.56,0-13.54-1.53-17.95-4.6-4.41-3.06-7.29-7.23-8.65-12.49Z"/><path class="cls-1" d="m834.51,495.08l14.63,2.46c-1.88,5.36-4.85,9.45-8.91,12.25-4.06,2.8-9.13,4.21-15.23,4.21-9.65,0-16.79-3.15-21.42-9.46-3.66-5.05-5.49-11.42-5.49-19.12,0-9.2,2.4-16.4,7.21-21.6,4.81-5.21,10.88-7.81,18.23-7.81,8.25,0,14.77,2.73,19.54,8.18,4.77,5.45,7.05,13.8,6.84,25.05h-36.78c.1,4.35,1.29,7.74,3.55,10.16,2.26,2.42,5.08,3.63,8.46,3.63,2.3,0,4.23-.63,5.8-1.88s2.75-3.27,3.55-6.06Zm.84-14.84c-.1-4.25-1.2-7.48-3.29-9.69s-4.63-3.32-7.63-3.32c-3.21,0-5.85,1.17-7.94,3.5-2.09,2.33-3.12,5.5-3.08,9.51h21.94Z"/><path class="cls-1" d="m871.79,474.18l-13.32-2.4c1.5-5.36,4.08-9.33,7.73-11.91,3.66-2.58,9.09-3.87,16.3-3.87,6.55,0,11.42.78,14.63,2.33,3.2,1.55,5.46,3.52,6.77,5.9,1.31,2.39,1.96,6.77,1.96,13.14l-.16,17.14c0,4.88.24,8.47.71,10.79.47,2.32,1.35,4.8,2.64,7.45h-14.52c-.38-.97-.85-2.42-1.41-4.34-.24-.87-.42-1.45-.52-1.72-2.51,2.44-5.19,4.27-8.05,5.49-2.86,1.22-5.9,1.83-9.14,1.83-5.71,0-10.21-1.55-13.51-4.65-3.29-3.1-4.94-7.02-4.94-11.75,0-3.13.75-5.93,2.25-8.39,1.5-2.46,3.6-4.34,6.3-5.64,2.7-1.31,6.59-2.45,11.68-3.42,6.86-1.29,11.62-2.49,14.26-3.61v-1.46c0-2.82-.7-4.83-2.09-6.03-1.39-1.2-4.02-1.8-7.89-1.8-2.61,0-4.65.51-6.11,1.54s-2.65,2.83-3.55,5.41Zm19.64,11.91c-1.88.63-4.86,1.38-8.93,2.25-4.08.87-6.74,1.72-7.99,2.56-1.92,1.36-2.87,3.08-2.87,5.17s.77,3.83,2.3,5.33c1.53,1.5,3.48,2.25,5.85,2.25,2.65,0,5.17-.87,7.58-2.61,1.78-1.32,2.94-2.94,3.5-4.86.38-1.25.57-3.64.57-7.16v-2.93Z"/><path class="cls-1" d="m932.24,512.74h-14.68v-55.49h13.64v7.89c2.33-3.73,4.43-6.18,6.29-7.37,1.86-1.18,3.98-1.78,6.35-1.78,3.34,0,6.56.92,9.67,2.77l-4.54,12.8c-2.47-1.6-4.77-2.4-6.9-2.4s-3.8.57-5.22,1.7c-1.43,1.13-2.55,3.18-3.37,6.14-.82,2.96-1.23,9.16-1.23,18.6v17.14Z"/><path class="cls-1" d="m1008.2,473.66l-14.47,2.61c-.49-2.89-1.59-5.07-3.32-6.53-1.72-1.46-3.96-2.2-6.71-2.2-3.66,0-6.58,1.26-8.75,3.79-2.18,2.53-3.27,6.75-3.27,12.67,0,6.58,1.11,11.23,3.32,13.95s5.18,4.07,8.91,4.07c2.79,0,5.07-.79,6.84-2.38,1.78-1.58,3.03-4.31,3.76-8.18l14.42,2.46c-1.5,6.62-4.37,11.62-8.62,14.99-4.25,3.38-9.95,5.07-17.08,5.07-8.12,0-14.58-2.56-19.41-7.68-4.82-5.12-7.24-12.21-7.24-21.26s2.42-16.29,7.26-21.39c4.84-5.1,11.39-7.65,19.64-7.65,6.76,0,12.13,1.46,16.12,4.36,3.99,2.91,6.85,7.34,8.59,13.3Z"/><path class="cls-1" d="m1031.82,436.15v28.16c4.74-5.54,10.4-8.31,16.98-8.31,3.38,0,6.43.63,9.14,1.88s4.76,2.86,6.14,4.81c1.38,1.95,2.32,4.11,2.82,6.48.5,2.37.76,6.04.76,11.02v32.55h-14.68v-29.31c0-5.82-.28-9.51-.84-11.08-.56-1.57-1.54-2.81-2.95-3.74-1.41-.92-3.18-1.38-5.3-1.38-2.44,0-4.62.59-6.53,1.78-1.92,1.18-3.32,2.97-4.21,5.36-.89,2.39-1.33,5.91-1.33,10.58v27.79h-14.68v-76.59h14.68Z"/><path class="cls-1" d="m129.07,598.58l14.99,4.75c-2.3,8.36-6.12,14.57-11.47,18.63s-12.13,6.09-20.35,6.09c-10.17,0-18.53-3.47-25.08-10.42-6.55-6.95-9.82-16.45-9.82-28.5,0-12.75,3.29-22.65,9.87-29.7,6.58-7.05,15.24-10.58,25.97-10.58,9.37,0,16.98,2.77,22.83,8.31,3.48,3.27,6.09,7.98,7.84,14.11l-15.31,3.66c-.91-3.97-2.79-7.11-5.67-9.4-2.87-2.3-6.37-3.45-10.47-3.45-5.68,0-10.28,2.04-13.82,6.11-3.54,4.08-5.3,10.68-5.3,19.8,0,9.68,1.74,16.58,5.22,20.69,3.48,4.11,8.01,6.17,13.58,6.17,4.11,0,7.64-1.31,10.61-3.92,2.96-2.61,5.08-6.72,6.37-12.33Z"/><path class="cls-1" d="m151.7,598.22c0-4.88,1.2-9.6,3.6-14.16,2.4-4.56,5.81-8.04,10.21-10.45,4.41-2.4,9.33-3.6,14.76-3.6,8.39,0,15.27,2.73,20.64,8.18,5.36,5.45,8.05,12.34,8.05,20.66s-2.71,15.35-8.12,20.87c-5.42,5.52-12.23,8.28-20.45,8.28-5.09,0-9.94-1.15-14.55-3.45-4.62-2.3-8.12-5.67-10.53-10.11-2.4-4.44-3.6-9.85-3.6-16.22Zm15.05.78c0,5.5,1.31,9.72,3.92,12.64s5.83,4.39,9.67,4.39,7.04-1.46,9.64-4.39,3.89-7.17,3.89-12.75-1.3-9.61-3.89-12.54-5.81-4.39-9.64-4.39-7.05,1.46-9.67,4.39-3.92,7.14-3.92,12.64Z"/><path class="cls-1" d="m218.29,571.26h13.53v7.58c4.84-5.89,10.61-8.83,17.29-8.83,3.55,0,6.63.73,9.25,2.19s4.75,3.67,6.43,6.63c2.44-2.96,5.07-5.17,7.89-6.63s5.83-2.19,9.04-2.19c4.08,0,7.52.83,10.34,2.48,2.82,1.66,4.93,4.08,6.32,7.29,1.01,2.37,1.51,6.2,1.51,11.49v35.47h-14.68v-31.71c0-5.5-.51-9.06-1.52-10.66-1.36-2.09-3.45-3.13-6.27-3.13-2.06,0-3.99.63-5.8,1.88-1.81,1.25-3.12,3.09-3.92,5.51s-1.2,6.24-1.2,11.47v26.65h-14.68v-30.41c0-5.4-.26-8.88-.78-10.45s-1.33-2.73-2.43-3.5c-1.1-.77-2.59-1.15-4.47-1.15-2.26,0-4.3.61-6.11,1.83-1.81,1.22-3.11,2.98-3.89,5.28-.78,2.3-1.18,6.11-1.18,11.44v26.96h-14.68v-55.49Z"/><path class="cls-1" d="m311.96,571.26h13.69v8.15c1.78-2.79,4.18-5.05,7.21-6.79,3.03-1.74,6.39-2.61,10.08-2.61,6.44,0,11.91,2.53,16.4,7.58,4.49,5.05,6.74,12.09,6.74,21.11s-2.26,16.47-6.79,21.6c-4.53,5.14-10.01,7.71-16.46,7.71-3.07,0-5.84-.61-8.33-1.83-2.49-1.22-5.11-3.31-7.86-6.27v27.95h-14.68v-76.59Zm14.52,26.8c0,6.24,1.24,10.84,3.71,13.82,2.47,2.98,5.49,4.47,9.04,4.47s6.25-1.37,8.52-4.1c2.26-2.73,3.4-7.22,3.4-13.45,0-5.82-1.17-10.14-3.5-12.96-2.33-2.82-5.22-4.23-8.67-4.23s-6.57,1.38-8.93,4.15c-2.37,2.77-3.55,6.87-3.55,12.3Z"/><path class="cls-1" d="m413.19,626.74v-8.31c-2.02,2.96-4.68,5.29-7.97,7-3.29,1.71-6.77,2.56-10.42,2.56s-7.07-.82-10.03-2.46c-2.96-1.64-5.1-3.94-6.43-6.9-1.32-2.96-1.99-7.05-1.99-12.28v-35.11h14.68v25.5c0,7.8.27,12.58.81,14.34s1.52,3.15,2.95,4.18c1.43,1.03,3.24,1.54,5.43,1.54,2.51,0,4.75-.69,6.74-2.06s3.34-3.08,4.08-5.12c.73-2.04,1.1-7.03,1.1-14.97v-23.41h14.68v55.49h-13.64Z"/><path class="cls-1" d="m466.41,571.26v11.7h-10.03v22.36c0,4.53.1,7.17.29,7.92.19.75.63,1.37,1.31,1.86.68.49,1.51.73,2.48.73,1.36,0,3.33-.47,5.9-1.41l1.25,11.39c-3.41,1.46-7.28,2.19-11.6,2.19-2.65,0-5.03-.44-7.16-1.33-2.12-.89-3.68-2.04-4.68-3.45-.99-1.41-1.68-3.32-2.06-5.72-.31-1.71-.47-5.15-.47-10.34v-24.19h-6.74v-11.7h6.74v-11.02l14.73-8.57v19.59h10.03Z"/><path class="cls-1" d="m476.59,563.73v-13.58h14.68v13.58h-14.68Zm0,63.01v-55.49h14.68v55.49h-14.68Z"/><path class="cls-1" d="m553.58,626.74h-14.68v-28.32c0-5.99-.31-9.87-.94-11.62-.63-1.76-1.65-3.13-3.06-4.1-1.41-.98-3.11-1.46-5.09-1.46-2.54,0-4.83.7-6.84,2.09-2.02,1.39-3.4,3.24-4.15,5.54s-1.12,6.55-1.12,12.75v25.13h-14.68v-55.49h13.64v8.15c4.84-6.27,10.94-9.4,18.29-9.4,3.24,0,6.2.58,8.88,1.75,2.68,1.17,4.71,2.66,6.09,4.47,1.38,1.81,2.33,3.87,2.87,6.16.54,2.3.81,5.59.81,9.88v34.48Z"/><path class="cls-1" d="m566.04,630.4l16.77,2.04c.28,1.95.92,3.29,1.93,4.02,1.39,1.04,3.59,1.57,6.58,1.57,3.83,0,6.71-.57,8.62-1.72,1.29-.77,2.26-2,2.93-3.71.45-1.22.68-3.47.68-6.74v-8.1c-4.39,5.99-9.93,8.99-16.61,8.99-7.45,0-13.36-3.15-17.71-9.46-3.41-4.98-5.12-11.18-5.12-18.6,0-9.3,2.24-16.4,6.71-21.32,4.47-4.91,10.04-7.37,16.69-7.37s12.52,3.01,16.98,9.04v-7.78h13.74v49.79c0,6.55-.54,11.44-1.62,14.68-1.08,3.24-2.59,5.78-4.55,7.63-1.95,1.85-4.55,3.29-7.81,4.34s-7.38,1.57-12.36,1.57c-9.4,0-16.08-1.61-20.01-4.83-3.94-3.22-5.9-7.31-5.9-12.25,0-.49.02-1.08.05-1.78Zm13.11-32.55c0,5.89,1.14,10.2,3.42,12.93s5.09,4.1,8.44,4.1c3.59,0,6.62-1.4,9.09-4.21,2.47-2.8,3.71-6.96,3.71-12.46s-1.18-10.01-3.55-12.8c-2.37-2.79-5.36-4.18-8.99-4.18s-6.42,1.37-8.7,4.1c-2.28,2.74-3.42,6.91-3.42,12.51Z"/></svg>